# xmcd CD database file
#
# Track frame offsets:
#	150
#	25007
#	51270
#	74546
#	101519
#	126319
#	151889
#	174912
#	202224
#	225274
#	253681
#	273246
#	296919
#
# Disc length: 4184 seconds
#
# Revision: 0
# Processed by: cddbd v1.4PL0 Copyright (c) Steve Scherf et al.
# Submitted via: CDex 1.50beta9
#
DISCID=b910560d
DTITLE=Pupy y Los que Son, Son   - Qué Cosas Tiene La Vida 
DYEAR=2002
DGENRE=Salsa
TTITLE0=Qué cosas tiene la vida 
TTITLE1=El que se mudó 
TTITLE2=El gato amaga y no araña 
TTITLE3=Mamaíta, pórtate bien 
TTITLE4=Ay, papá 
TTITLE5=La bomba soy yo 
TTITLE6=El pregonero 
TTITLE7=Juégala
TTITLE8=Te molesta que sea feliz 
TTITLE9=Hoy se cumplen seis semanas 
TTITLE10=Las mujeres son
TTITLE11=Vamos a gozar hasta fuera
TTITLE12=El bate de aluminio 
EXTD=YEAR: 2002
EXTT0=
EXTT1=
EXTT2=
EXTT3=
EXTT4=
EXTT5=
EXTT6=
EXTT7=
EXTT8=
EXTT9=
EXTT10=
EXTT11=
EXTT12=
PLAYORDER=
